HIERARCHY
ROOT Hips
{
	OFFSET 0.000000 0.000000 0.000000
	CHANNELS 6 Xposition Yposition Zposition Zrotation Yrotation Xrotation 
	JOINT Spine1
	{
		OFFSET -0.013727 5.003762 -0.053727
		CHANNELS 3 Zrotation Yrotation Xrotation
		JOINT Spine2
		{
			OFFSET -0.000000 7.125302 -0.029825
			CHANNELS 3 Zrotation Yrotation Xrotation
			JOINT Chest
			{
				OFFSET -0.000001 7.550064 -0.815971
				CHANNELS 3 Zrotation Yrotation Xrotation
				JOINT Neck1
				{
					OFFSET -0.181677 26.311296 -0.553348
					CHANNELS 3 Zrotation Yrotation Xrotation
					JOINT Neck2
					{
						OFFSET -0.000003 7.709398 2.302586
						CHANNELS 3 Zrotation Yrotation Xrotation
						JOINT Head
						{
							OFFSET -0.000005 6.128913 1.953709
							CHANNELS 3 Zrotation Yrotation Xrotation
							JOINT HeadEnd
							{
								OFFSET 0.003598 16.065401 -1.835379
								CHANNELS 3 Zrotation Yrotation Xrotation
								End Site
								{
									OFFSET 0.000000 0.000000 0.000000
								}
							}
							JOINT Jaw
							{
								OFFSET 0.002637 0.475591 3.094941
								CHANNELS 3 Zrotation Yrotation Xrotation
								End Site
								{
									OFFSET 0.000000 0.000000 0.000000
								}
							}
							JOINT LeftEye
							{
								OFFSET 3.206381 5.380207 7.586883
								CHANNELS 3 Zrotation Yrotation Xrotation
								End Site
								{
									OFFSET 0.000000 0.000000 0.000000
								}
							}
							JOINT RightEye
							{
								OFFSET -3.222440 5.361866 7.558233
								CHANNELS 3 Zrotation Yrotation Xrotation
								End Site
								{
									OFFSET 0.000000 0.000000 0.000000
								}
							}
						}
					}
				}
				JOINT LeftShoulder
				{
					OFFSET 1.621652 23.237164 5.113413
					CHANNELS 3 Zrotation Yrotation Xrotation
					JOINT LeftArm
					{
						OFFSET 14.919845 0.000000 -5.502326
						CHANNELS 3 Zrotation Yrotation Xrotation
						JOINT LeftForeArm
						{
							OFFSET 28.739309 0.000004 -0.002588
							CHANNELS 3 Zrotation Yrotation Xrotation
							JOINT LeftHand
							{
								OFFSET 27.093979 -0.000004 0.002609
								CHANNELS 3 Zrotation Yrotation Xrotation
								JOINT LeftHandThumb1
								{
									OFFSET 2.276480 -1.392046 3.191413
									CHANNELS 3 Zrotation Yrotation Xrotation
									JOINT LeftHandThumb2
									{
										OFFSET 4.012842 -1.828126 1.641655
										CHANNELS 3 Zrotation Yrotation Xrotation
										JOINT LeftHandThumb3
										{
											OFFSET 2.798517 0.000001 -0.000004
											CHANNELS 3 Zrotation Yrotation Xrotation
											JOINT LeftHandThumbEnd
											{
												OFFSET 3.180791 -0.000001 0.000004
												CHANNELS 3 Zrotation Yrotation Xrotation
												End Site
												{
													OFFSET 0.000000 0.000000 0.000000
												}
											}
										}
									}
								}
								JOINT LeftHandIndex1
								{
									OFFSET 3.247553 -0.531998 2.296169
									CHANNELS 3 Zrotation Yrotation Xrotation
									JOINT LeftHandIndex2
									{
										OFFSET 6.364580 0.012062 0.178600
										CHANNELS 3 Zrotation Yrotation Xrotation
										JOINT LeftHandIndex3
										{
											OFFSET 3.662367 0.000001 0.000000
											CHANNELS 3 Zrotation Yrotation Xrotation
											JOINT LeftHandIndex4
											{
												OFFSET 2.329242 0.000001 0.000004
												CHANNELS 3 Zrotation Yrotation Xrotation
												JOINT LeftHandIndexEnd
												{
													OFFSET 2.759619 -0.180539 -0.113023
													CHANNELS 3 Zrotation Yrotation Xrotation
													End Site
													{
														OFFSET 0.000000 0.000000 0.000000
													}
												}
											}
										}
									}
								}
								JOINT LeftHandMiddle1
								{
									OFFSET 3.163499 0.240981 1.000332
									CHANNELS 3 Zrotation Yrotation Xrotation
									JOINT LeftHandMiddle2
									{
										OFFSET 6.190778 -0.259276 -1.002548
										CHANNELS 3 Zrotation Yrotation Xrotation
										JOINT LeftHandMiddle3
										{
											OFFSET 4.356522 -0.000007 0.000000
											CHANNELS 3 Zrotation Yrotation Xrotation
											JOINT LeftHandMiddle4
											{
												OFFSET 2.996875 -0.000007 0.000001
												CHANNELS 3 Zrotation Yrotation Xrotation
												JOINT LeftHandMiddleEnd
												{
													OFFSET 2.304294 -0.294571 -0.031740
													CHANNELS 3 Zrotation Yrotation Xrotation
													End Site
													{
														OFFSET 0.000000 0.000000 0.000000
													}
												}
											}
										}
									}
								}
								JOINT LeftHandRing1
								{
									OFFSET 2.882642 -0.053650 -0.322543
									CHANNELS 3 Zrotation Yrotation Xrotation
									JOINT LeftHandRing2
									{
										OFFSET 5.854543 -0.486203 -1.373841
										CHANNELS 3 Zrotation Yrotation Xrotation
										JOINT LeftHandRing3
										{
											OFFSET 4.350579 0.000000 0.000003
											CHANNELS 3 Zrotation Yrotation Xrotation
											JOINT LeftHandRing4
											{
												OFFSET 2.651323 0.000007 0.000004
												CHANNELS 3 Zrotation Yrotation Xrotation
												JOINT LeftHandRingEnd
												{
													OFFSET 1.936111 0.077685 -0.000070
													CHANNELS 3 Zrotation Yrotation Xrotation
													End Site
													{
														OFFSET 0.000000 0.000000 0.000000
													}
												}
											}
										}
									}
								}
								JOINT LeftHandPinky1
								{
									OFFSET 2.865499 -0.310004 -1.600378
									CHANNELS 3 Zrotation Yrotation Xrotation
									JOINT LeftHandPinky2
									{
										OFFSET 5.087853 -1.331142 -1.771231
										CHANNELS 3 Zrotation Yrotation Xrotation
										JOINT LeftHandPinky3
										{
											OFFSET 3.070976 0.000004 0.000001
											CHANNELS 3 Zrotation Yrotation Xrotation
											JOINT LeftHandPinky4
											{
												OFFSET 1.549667 0.000000 0.000001
												CHANNELS 3 Zrotation Yrotation Xrotation
												JOINT LeftHandPinkyEnd
												{
													OFFSET 1.944894 -0.157802 0.057219
													CHANNELS 3 Zrotation Yrotation Xrotation
													End Site
													{
														OFFSET 0.000000 0.000000 0.000000
													}
												}
											}
										}
									}
								}
							}
						}
					}
				}
				JOINT RightShoulder
				{
					OFFSET -1.380118 23.180307 5.214158
					CHANNELS 3 Zrotation Yrotation Xrotation
					JOINT RightArm
					{
						OFFSET -15.037197 0.000012 -5.545604
						CHANNELS 3 Zrotation Yrotation Xrotation
						JOINT RightForeArm
						{
							OFFSET -28.736639 0.000003 -0.002597
							CHANNELS 3 Zrotation Yrotation Xrotation
							JOINT RightHand
							{
								OFFSET -27.133617 -0.000001 0.002613
								CHANNELS 3 Zrotation Yrotation Xrotation
								JOINT RightHandThumb1
								{
									OFFSET -2.274036 -1.383990 3.163128
									CHANNELS 3 Zrotation Yrotation Xrotation
									JOINT RightHandThumb2
									{
										OFFSET -4.011429 -1.827468 1.640914
										CHANNELS 3 Zrotation Yrotation Xrotation
										JOINT RightHandThumb3
										{
											OFFSET -2.794935 -0.000003 -0.000003
											CHANNELS 3 Zrotation Yrotation Xrotation
											JOINT RightHandThumbEnd
											{
												OFFSET -3.183855 0.000003 -0.000000
												CHANNELS 3 Zrotation Yrotation Xrotation
												End Site
												{
													OFFSET 0.000000 0.000000 0.000000
												}
											}
										}
									}
								}
								JOINT RightHandIndex1
								{
									OFFSET -3.253269 -0.520060 2.282866
									CHANNELS 3 Zrotation Yrotation Xrotation
									JOINT RightHandIndex2
									{
										OFFSET -6.341918 0.012472 0.178265
										CHANNELS 3 Zrotation Yrotation Xrotation
										JOINT RightHandIndex3
										{
											OFFSET -3.654875 -0.000009 -0.000001
											CHANNELS 3 Zrotation Yrotation Xrotation
											JOINT RightHandIndex4
											{
												OFFSET -2.327586 -0.000001 0.000001
												CHANNELS 3 Zrotation Yrotation Xrotation
												JOINT RightHandIndexEnd
												{
													OFFSET -2.761789 -0.180657 -0.113079
													CHANNELS 3 Zrotation Yrotation Xrotation
													End Site
													{
														OFFSET 0.000000 0.000000 0.000000
													}
												}
											}
										}
									}
								}
								JOINT RightHandMiddle1
								{
									OFFSET -3.168106 0.246593 1.001030
									CHANNELS 3 Zrotation Yrotation Xrotation
									JOINT RightHandMiddle2
									{
										OFFSET -6.180830 -0.258836 -1.000896
										CHANNELS 3 Zrotation Yrotation Xrotation
										JOINT RightHandMiddle3
										{
											OFFSET -4.348905 -0.000001 -0.000001
											CHANNELS 3 Zrotation Yrotation Xrotation
											JOINT RightHandMiddle4
											{
												OFFSET -3.000243 -0.000003 -0.000002
												CHANNELS 3 Zrotation Yrotation Xrotation
												JOINT RightHandMiddleEnd
												{
													OFFSET -2.302518 -0.294371 -0.031706
													CHANNELS 3 Zrotation Yrotation Xrotation
													End Site
													{
														OFFSET 0.000000 0.000000 0.000000
													}
												}
											}
										}
									}
								}
								JOINT RightHandRing1
								{
									OFFSET -2.885694 -0.067952 -0.308858
									CHANNELS 3 Zrotation Yrotation Xrotation
									JOINT RightHandRing2
									{
										OFFSET -5.854197 -0.486132 -1.373732
										CHANNELS 3 Zrotation Yrotation Xrotation
										JOINT RightHandRing3
										{
											OFFSET -4.338813 -0.000004 -0.000000
											CHANNELS 3 Zrotation Yrotation Xrotation
											JOINT RightHandRing4
											{
												OFFSET -2.654905 -0.000004 0.000003
												CHANNELS 3 Zrotation Yrotation Xrotation
												JOINT RightHandRingEnd
												{
													OFFSET -1.933571 0.077524 -0.000052
													CHANNELS 3 Zrotation Yrotation Xrotation
													End Site
													{
														OFFSET 0.000000 0.000000 0.000000
													}
												}
											}
										}
									}
								}
								JOINT RightHandPinky1
								{
									OFFSET -2.866430 -0.342798 -1.584145
									CHANNELS 3 Zrotation Yrotation Xrotation
									JOINT RightHandPinky2
									{
										OFFSET -5.091369 -1.332054 -1.772385
										CHANNELS 3 Zrotation Yrotation Xrotation
										JOINT RightHandPinky3
										{
											OFFSET -3.062666 -0.000007 0.000000
											CHANNELS 3 Zrotation Yrotation Xrotation
											JOINT RightHandPinky4
											{
												OFFSET -1.546527 0.000005 -0.000002
												CHANNELS 3 Zrotation Yrotation Xrotation
												JOINT RightHandPinkyEnd
												{
													OFFSET -1.945122 -0.157721 0.057211
													CHANNELS 3 Zrotation Yrotation Xrotation
													End Site
													{
														OFFSET 0.000000 0.000000 0.000000
													}
												}
											}
										}
									}
								}
							}
						}
					}
				}
			}
		}
	}
	JOINT LeftLeg
	{
		OFFSET 10.043214 -8.434526 2.595655
		CHANNELS 3 Zrotation Yrotation Xrotation
		JOINT LeftShin
		{
			OFFSET -0.000001 -43.221752 -0.802913
			CHANNELS 3 Zrotation Yrotation Xrotation
			JOINT LeftFoot
			{
				OFFSET 0.000001 -42.155094 -3.481523
				CHANNELS 3 Zrotation Yrotation Xrotation
				JOINT LeftToeBase
				{
					OFFSET 0.000000 -5.059475 13.231529
					CHANNELS 3 Zrotation Yrotation Xrotation
					JOINT LeftToeEnd
					{
						OFFSET -0.009607 -1.647616 6.513017
						CHANNELS 3 Zrotation Yrotation Xrotation
						End Site
						{
							OFFSET 0.000000 0.000000 0.000000
						}
					}
				}
			}
		}
	}
	JOINT RightLeg
	{
		OFFSET -10.047277 -8.295259 2.620317
		CHANNELS 3 Zrotation Yrotation Xrotation
		JOINT RightShin
		{
			OFFSET 0.000001 -43.362209 -0.805556
			CHANNELS 3 Zrotation Yrotation Xrotation
			JOINT RightFoot
			{
				OFFSET 0.000002 -42.117393 -3.478398
				CHANNELS 3 Zrotation Yrotation Xrotation
				JOINT RightToeBase
				{
					OFFSET -0.000001 -5.079609 13.284196
					CHANNELS 3 Zrotation Yrotation Xrotation
					JOINT RightToeEnd
					{
						OFFSET 0.009532 -1.634383 6.460591
						CHANNELS 3 Zrotation Yrotation Xrotation
						End Site
						{
							OFFSET 0.000000 0.000000 0.000000
						}
					}
				}
			}
		}
	}
}
MOTION
Frames: 4
Frame Time: 0.033333
0.233574 96.663376 0.239042 -5.758414 0.760108 -9.768898 3.502249 0.006078 -1.642641 0.244617 -0.455830 -5.185157 3.891421 -2.492914 11.860858 -2.074696 4.041471 13.931494 0.336658 3.570740 -3.772077 -4.443117 5.087462 -8.667608 0.000077 -0.000023 0.000006 0.010130 -0.133424 0.109229 0.683096 -3.862298 -10.614278 -0.672636 3.590581 -10.618960 -17.711531 -16.748045 9.420517 -26.096348 -26.418573 -21.766575 -178.745651 -73.356613 178.581390 9.811710 4.733603 16.216568 -5.882102 9.861278 0.702590 -10.936860 -0.360574 7.156199 0.000001 8.774814 0.000000 -16.049534 17.262993 6.002492 -1.844031 2.498502 -2.507276 -10.163589 4.678942 4.621104 -20.975996 -0.000003 0.000004 -21.226254 2.451694 -3.593994 0.000001 -0.000005 -0.000000 -1.362679 2.240797 -0.746324 -21.334887 0.584911 3.008319 -13.821195 -0.000002 0.000004 -23.887129 -0.249079 -0.839480 -61.116112 2.515060 -1.524006 -0.294023 1.679687 0.833257 -14.218194 0.093214 1.300578 -34.211998 -0.287564 0.967169 -20.033176 0.964537 1.212840 -0.000000 0.000001 -0.000000 -3.440385 0.788233 0.501654 -15.928167 -3.167307 2.999705 -6.338817 0.000000 0.000001 -18.123415 3.648178 -4.905661 -0.000004 0.000001 -0.000001 17.563736 18.378822 12.721386 50.094051 45.197765 13.547513 179.914124 55.690060 179.979752 -16.495577 5.290957 -5.666062 2.243540 -5.255033 -3.180154 14.282878 -0.826593 6.952495 -0.000002 -12.690588 0.000000 15.769529 -17.669651 2.749738 1.665664 -1.955921 -2.878296 4.727793 -4.170582 4.993918 11.020511 0.000004 0.000000 12.109031 -3.735708 -2.866778 0.000000 0.000001 0.000000 1.291983 -1.928547 -1.498088 14.800111 0.567469 3.865604 14.242553 -1.341733 -6.660648 19.631939 0.143927 -0.648243 49.223766 -0.575498 -5.859872 0.353028 -1.511150 -0.031940 20.222773 3.684307 2.316628 18.787247 0.000006 -0.000002 10.751610 -0.479868 1.397904 -0.000000 -0.000000 -0.000001 3.273805 0.305947 -0.580110 21.486795 11.830361 2.266132 8.162916 0.000003 0.000001 18.399048 -3.798977 -4.940565 0.000003 -0.000002 -0.000001 18.020817 -1.397671 -10.367771 -0.088482 -0.370830 24.437841 -13.999071 11.067710 -4.803690 1.641206 -1.981895 -1.726860 -0.000000 0.000000 0.000002 2.404337 3.742355 18.331602 -0.053107 0.053451 6.050913 7.977849 -6.998116 -12.755095 -1.474381 1.192900 -1.255497 -0.000000 0.000000 -0.000001 
0.233050 96.664940 0.244953 -5.755210 0.731011 -9.766222 3.508465 0.029475 -1.659251 0.240683 -0.471492 -5.211368 3.902743 -2.495220 11.882963 -2.101281 4.024795 13.930602 0.356038 3.644839 -3.786091 -4.463862 5.076662 -8.684362 0.000077 -0.000022 0.000006 0.009264 -0.123195 0.106506 0.685089 -3.852553 -10.625573 -0.678103 3.614225 -10.633485 -17.702099 -16.744694 9.415753 -26.019194 -26.367329 -21.812262 -178.700592 -73.457077 178.498825 9.785908 4.724516 16.216732 -5.882102 9.861279 0.702590 -10.936858 -0.360573 7.156198 0.000000 8.774814 -0.000002 -16.066149 17.302900 6.010555 -1.844031 2.498501 -2.507277 -10.163589 4.678938 4.621103 -20.975996 -0.000002 0.000001 -21.226255 2.451692 -3.593996 0.000001 -0.000006 -0.000000 -1.362682 2.240798 -0.746323 -21.334890 0.584907 3.008318 -13.821197 -0.000003 0.000004 -23.887131 -0.249078 -0.839482 -61.083363 2.534793 -1.513974 -0.294025 1.679685 0.833254 -14.218194 0.093214 1.300579 -34.212002 -0.287566 0.967170 -20.033176 0.964537 1.212842 0.000000 0.000001 0.000001 -3.440385 0.788231 0.501655 -15.928167 -3.167309 2.999704 -6.338817 0.000001 0.000001 -18.123415 3.648174 -4.905662 -0.000004 -0.000000 -0.000002 17.588100 18.380348 12.729993 50.081696 45.235321 13.538257 179.935165 55.721931 179.955017 -16.477663 5.283923 -5.700963 2.243539 -5.255031 -3.180155 14.282875 -0.826592 6.952494 -0.000002 -12.690590 -0.000001 15.722255 -17.673738 2.769044 1.665665 -1.955920 -2.878299 4.727793 -4.170583 4.993918 11.020513 0.000003 -0.000001 12.109030 -3.735709 -2.866779 -0.000001 0.000001 0.000001 1.291983 -1.928548 -1.498088 14.800113 0.567469 3.865602 14.242553 -1.341734 -6.660650 19.631935 0.143928 -0.648245 49.154987 -0.569683 -5.868336 0.353029 -1.511149 -0.031940 20.222769 3.684304 2.316626 18.787247 0.000005 -0.000003 10.751610 -0.479870 1.397904 0.000000 -0.000001 -0.000000 3.273804 0.305947 -0.580111 21.486790 11.830360 2.266131 8.162915 0.000001 -0.000001 18.399048 -3.798977 -4.940566 0.000003 -0.000002 -0.000000 18.028269 -1.413116 -10.349690 -0.095257 -0.381523 24.428785 -14.019581 11.146722 -4.810196 1.642685 -1.988376 -1.724083 0.000000 -0.000000 0.000002 2.388714 3.745950 18.326200 -0.055469 0.056034 6.065957 7.983470 -6.957384 -12.743537 -1.475072 1.195446 -1.229409 0.000000 0.000000 -0.000001 
0.210745 96.664963 0.235109 -5.759393 0.697631 -9.764566 3.507391 0.038838 -1.681626 0.248289 -0.457630 -5.211642 3.913785 -2.520066 11.893661 -2.119588 4.025477 13.885755 0.406260 3.673113 -3.782451 -4.494525 5.094789 -8.677891 0.000077 -0.000022 0.000006 0.009372 -0.116490 0.102688 0.688127 -3.844040 -10.623983 -0.677504 3.612207 -10.631747 -17.696014 -16.754597 9.391066 -25.937176 -26.285995 -21.823662 -178.753189 -73.508949 178.522736 9.755308 4.727423 16.210325 -5.882102 9.861278 0.702588 -10.936861 -0.360573 7.156198 -0.000000 8.774812 0.000001 -16.049856 17.337851 6.059017 -1.844030 2.498501 -2.507277 -10.163592 4.678941 4.621104 -20.975996 0.000001 0.000002 -21.226255 2.451694 -3.593994 0.000002 -0.000006 -0.000000 -1.362679 2.240797 -0.746322 -21.334892 0.584911 3.008321 -13.821197 -0.000000 0.000003 -23.887131 -0.249078 -0.839482 -61.085590 2.524766 -1.485912 -0.294025 1.679684 0.833256 -14.218195 0.093215 1.300582 -34.212006 -0.287561 0.967170 -20.033178 0.964538 1.212840 0.000000 0.000002 0.000000 -3.440386 0.788232 0.501656 -15.928165 -3.167304 2.999703 -6.338818 0.000003 0.000002 -18.123415 3.648178 -4.905661 -0.000004 -0.000000 -0.000002 17.623386 18.373629 12.771169 50.071663 45.287971 13.559972 -179.992798 55.746357 -179.949249 -16.412764 5.311804 -5.768494 2.243541 -5.255034 -3.180156 14.282877 -0.826593 6.952496 -0.000001 -12.690590 -0.000001 15.663114 -17.689148 2.794849 1.665663 -1.955919 -2.878296 4.727795 -4.170583 4.993921 11.020512 0.000003 0.000000 12.109030 -3.735710 -2.866780 -0.000001 -0.000000 0.000000 1.291985 -1.928548 -1.498089 14.800113 0.567466 3.865604 14.242551 -1.341735 -6.660647 19.631939 0.143927 -0.648242 49.101795 -0.579109 -5.840916 0.353030 -1.511150 -0.031940 20.222765 3.684306 2.316628 18.787247 0.000003 -0.000000 10.751611 -0.479869 1.397904 -0.000000 0.000000 0.000000 3.273804 0.305946 -0.580109 21.486790 11.830363 2.266131 8.162916 0.000003 -0.000001 18.399054 -3.798982 -4.940567 0.000003 -0.000002 -0.000000 18.038197 -1.425623 -10.339408 -0.095352 -0.383603 24.399843 -14.014786 11.207175 -4.804213 1.644223 -1.991070 -1.740611 0.000000 -0.000000 0.000002 2.385230 3.741680 18.304152 -0.056050 0.057530 6.090158 8.001559 -6.914428 -12.749135 -1.474491 1.191440 -1.223927 -0.000000 0.000000 -0.000001 
0.208809 96.685852 0.213510 -5.777881 0.710522 -9.785254 3.520729 0.016905 -1.686466 0.261140 -0.432757 -5.208839 3.922779 -2.527892 11.896585 -2.122804 4.015425 13.850141 0.436333 3.702518 -3.780307 -4.509145 5.102251 -8.677653 0.000077 -0.000023 0.000006 0.011208 -0.123460 0.100037 0.687292 -3.854646 -10.626571 -0.676738 3.601853 -10.634556 -17.708395 -16.762703 9.352588 -25.872438 -26.222422 -21.782925 -178.880112 -73.545029 178.629456 9.673809 4.711120 16.218559 -5.882103 9.861281 0.702591 -10.936858 -0.360577 7.156197 0.000001 8.774813 -0.000001 -16.055660 17.323912 6.031283 -1.844031 2.498505 -2.507273 -10.163590 4.678938 4.621105 -20.975996 0.000000 0.000002 -21.226255 2.451694 -3.593995 0.000001 -0.000006 -0.000000 -1.362680 2.240796 -0.746322 -21.334892 0.584911 3.008322 -13.821198 -0.000000 0.000004 -23.887131 -0.249075 -0.839485 -61.052406 2.474273 -1.494008 -0.294025 1.679686 0.833256 -14.218195 0.093216 1.300581 -34.211998 -0.287560 0.967167 -20.033180 0.964534 1.212840 0.000000 0.000000 0.000000 -3.440386 0.788234 0.501655 -15.928169 -3.167307 2.999703 -6.338819 0.000001 0.000001 -18.123415 3.648180 -4.905663 -0.000004 0.000001 -0.000002 17.665783 18.346716 12.812061 50.012188 45.339775 13.558582 -179.924377 55.779293 -179.934647 -16.346779 5.340396 -5.678359 2.243540 -5.255032 -3.180155 14.282875 -0.826592 6.952496 -0.000002 -12.690587 0.000000 15.695947 -17.722429 2.780467 1.665664 -1.955920 -2.878296 4.727794 -4.170583 4.993918 11.020513 0.000004 -0.000000 12.109033 -3.735707 -2.866780 -0.000001 0.000001 0.000001 1.291983 -1.928547 -1.498087 14.800113 0.567467 3.865602 14.242553 -1.341734 -6.660648 19.631937 0.143929 -0.648244 49.090935 -0.578259 -5.905573 0.353028 -1.511149 -0.031941 20.222771 3.684306 2.316627 18.787245 0.000006 -0.000002 10.751609 -0.479867 1.397905 -0.000000 -0.000000 -0.000001 3.273804 0.305947 -0.580112 21.486788 11.830362 2.266129 8.162916 0.000003 0.000000 18.399052 -3.798979 -4.940566 0.000003 -0.000002 -0.000001 18.055038 -1.476350 -10.284646 -0.086063 -0.371224 24.282486 -14.008454 11.260272 -4.721807 1.643451 -1.990434 -1.751147 -0.000000 0.000000 0.000002 2.408287 3.700130 18.307680 -0.058255 0.064256 6.124169 7.991585 -6.892167 -12.648432 -1.472889 1.180888 -1.233343 -0.000000 -0.000000 -0.000001 
